# xmcd CD database file
#
# Track frame offsets:
#	150
#	5429
#	19401
#	31190
#	44458
#	61676
#	77076
#	96588
#	110973
#	137887
#	155749
#	183067
#	199748
#	245721
#	260410
#	278774
#	290861
#	309143
#
# Disc length: 4429 seconds
#
# Revision: 1
# Processed by: cddbd v1.5.2PL0 Copyright (c) Steve Scherf et al.
# Submitted via: CDex 1.70beta2
#
DISCID=05114b12
DTITLE=Rainermusikanten -  rainer LIVE!
DYEAR=2002
DGENRE=Blasmusik
TTITLE0=Introduction Wetten daﬂ...?
TTITLE1=Marvenecek-Polka
TTITLE2=Rainermarsch
TTITLE3=Festliche Polka
TTITLE4=Pro Kamerada
TTITLE5=Motylek-Polka
TTITLE6=Tiger&Honey
TTITLE7=Ruzicka-Polka
TTITLE8=Austro-Pop Medley
TTITLE9=Komet-Polka
TTITLE10=Schickeria
TTITLE11=(Everything I Do) I Do It For
TTITLE12=Beatles: Number Ones
TTITLE13=Kiss
TTITLE14=You Can Leave Your Hat On
TTITLE15=See See Rider
TTITLE16=Und aus!
TTITLE17=Rock`n ` Roll 4 Rainer
EXTD=YEAR: 2002
EXTT0=
EXTT1=
EXTT2=
EXTT3=
EXTT4=
EXTT5=
EXTT6=
EXTT7=
EXTT8=
EXTT9=
EXTT10=
EXTT11=
EXTT12=
EXTT13=
EXTT14=
EXTT15=
EXTT16=
EXTT17=
PLAYORDER=
